<svg xmlns="http://www.w3.org/2000/svg" viewBox="0 0 48 48"><g fill="#010101"><path d="M38.3 13.3c.3.8.4 1.7.4 2.5.9-.6 1.6-1 2.1-1.3h.2c.4-.1.8-.5 1.2-.7.8-.4 1.8-.3 2.8-.3.9 0 2-.3 2.4-1.1.2-.5.1-1.2-.1-1.7s-.6-1-.9-1.5c-.4-.8-.6-1.5-.7-2.2-.1-.5-.1-1.1-.3-1.6-.4-1-1.7-1.6-2.7-1.2-.8.3-1.2 1-1.7 1.7-.6 1-1.3 2.1-1.8 3.1 0 0-.7.7-1.9 1.7.4.9.8 1.7 1 2.6zM3 13.5c.9 0 1.9-.1 2.8.3.4.2.8.5 1.2.6h.2c.5.3 1.2.7 2.1 1.3 0-.8.1-1.7.4-2.5.2-.6.5-1.4 1-2.4-1.2-1-1.9-1.7-1.9-1.7C8.2 8 7.6 7 6.9 5.9c-.4-.6-.9-1.4-1.7-1.7-1-.4-2.3.1-2.7 1.2-.2.5-.2 1-.2 1.6-.1.7-.3 1.4-.7 2l-.9 1.5c-.2.5-.3 1.2-.1 1.7.4 1 1.5 1.2 2.4 1.3zM46.7 35c-1.1-.7-2.4-1.1-3.7-1-.8 0-1.7.3-2.5.4-1.8-1.1-3.6-2.3-5.4-3.5-.6.5-1.1.9-1.2 1.4-.1.3-.1.8-.1 1.3v2c.7.6 1.4 1.3 2.1 2 .3.6.6 1.2.8 1.8.1.5.1 1 .2 1.5.2 1 .7 2 1.6 2.5.8.6 2 .7 2.9.3 1-.5 1.6-1.7 2.3-2.5.6-.7 1.4-1.1 2.1-1.7.7-.6 1.4-1.2 1.6-2.1.3-.9 0-2-.7-2.4zM14.2 33.8v-.2c0-.5.1-1-.1-1.3-.2-.5-.7-.9-1.2-1.4-1.8 1.2-3.6 2.4-5.4 3.5-.8-.2-1.6-.4-2.4-.4-1.3-.1-2.6.3-3.7 1-.8.5-1 1.5-.7 2.4.3.9.9 1.5 1.6 2.1.7.6 1.5 1 2.1 1.7.8.8 1.3 2 2.3 2.5.9.5 2.1.3 2.9-.3.8-.6 1.4-1.5 1.6-2.5.1-.5.1-1 .2-1.5.1-.6.4-1.2.8-1.8.7-.7 1.4-1.3 2.1-2-.1-.6-.1-1.2-.1-1.8z"/><path d="M37.2 13.6C36.4 11.1 34 4.7 24 4.7c-9.5 0-12.4 6.4-13.2 8.9-.4 1.4-.4 2.8-.3 4.3.2 3 .8 6 1.3 8.9.1.5.2 1 .4 1.5.7 1.4 2.6 2.1 3.1 3.6.2.6.1 1.3.1 1.9-.1 1.9.1 3.9 1 5.6.8 1.4 2.2 2.5 3.8 3 3.5 1.1 4.6 1.1 7.5 0 1.5-.6 3-1.6 3.8-3 1-1.7 1.1-3.7 1-5.6 0-.6-.1-1.3.1-1.9.5-1.5 2.4-2.2 3.1-3.6.2-.5.3-1 .4-1.5.5-3 1-5.9 1.3-8.9.1-1.4.2-2.9-.2-4.3zm-12.7 12 1.7 3.8c.1.2.1.3 0 .4-.1.5-1 .8-2.2.8-1.2 0-2.1-.4-2.2-.8-.1-.1-.1-.3 0-.4l1.7-3.8c.2-.4.8-.4 1 0zm-7.3 9.7c-.2 0-.3-.6-.3-1.4v-.2c.1.3.4.4.6.5 0 .6-.1 1.1-.3 1.1zm.3-1.8v.3c-.1-.1-.4-.2-.6-.5 0-.7.2-1.3.3-1.3.3 0 .4.7.3 1.5zm-.2-7.4c-.5-.1-1-.4-1.4-.7-.3-.2-.5-.4-.7-.6-.5-.5-.8-1.3-.9-2.1-.1-.6-.2-1.3-.2-1.9v-.6c.1-.7.7-1.2 1.4-1.4.7-.2 1.4-.2 2-.2 1.1 0 2.2 0 3.2.3.9.3 1.9 1 2 2 .1.8-.3 1.6-.7 2.3-.4.6-.9 1.1-1.5 1.6-.9.8-2.1 1.6-3.2 1.3zm.7 9.6c-.2 0-.4-.7-.3-1.5.1.5.7.6.7.6-.1.6-.3.9-.4.9zm.7.8c-.2 0-.4-.7-.4-1.6.2.4.7.6.8.7 0 .5-.2.9-.4.9zm-.3-2s-.6-.2-.7-.6c0-.8.2-1.5.4-1.5s.4.6.3 1.4c.1-.6.3-1 .5-1 .3 0 .4.8.4 1.7 0 .3 0 .5-.1.8-.2-.2-.7-.4-.8-.8zm2.8 4.3c-.4 0-.7-1.1-.7-2.5-.1.9-.4 1.6-.7 1.6-.4 0-.6-1-.6-2.3.3.6 1.3.7 1.3.7.7.6 1.7.4 1.7.4-.2 1.2-.6 2.1-1 2.1zm1-2.9v.4s-.9.3-1.7-.4c0 0-1-.1-1.3-.7.1-1.3.4-2.3.8-2.3s.6 1 .5 2.2c.2-1.1.6-1.9 1-1.9.6.1.9 1.2.7 2.7zm1 3.3c-.4 0-.8-1.1-.9-2.5.8.3 1.6 0 1.6 0 .1 1.4-.3 2.5-.7 2.5zm.8-2.9s-.9.4-1.7 0v-.2c0-1.5.3-2.8.8-2.8s.9 1.2.9 2.8v.2zm.8 2.9c-.4 0-.8-1.1-.8-2.5 0 0 .8.4 1.6 0 0 1.4-.4 2.5-.8 2.5zm.9-3.1v.2c-.8.3-1.6 0-1.6 0v-.2c0-1.5.4-2.8.9-2.8.4 0 .8 1.2.7 2.8zm.7-2.9c.4 0 .8.8 1 1.9-.1-1.2.2-2.2.5-2.2.4 0 .8 1 .8 2.3-.3.6-1.3.7-1.3.7-.7.6-1.7.4-1.7.4v-.4c-.1-1.5.2-2.6.7-2.7zm1.8 4.7c-.3 0-.6-.7-.7-1.6.1 1.4-.2 2.5-.7 2.5-.4 0-.8-.9-1-2.1 0 0 .9.3 1.7-.4 0 0 1-.1 1.3-.7 0 1.3-.2 2.3-.6 2.3zm1.1-1.4c-.2 0-.3-.4-.4-1 .1-.1.7-.3.8-.7 0 1-.2 1.7-.4 1.7zm-.5-1.3c0-.2-.1-.5-.1-.8-.1-1 .1-1.7.4-1.7.2 0 .4.4.5 1 0-.8.1-1.4.3-1.4.2 0 .4.7.4 1.5-.1.5-.7.6-.7.6-.1.5-.6.7-.8.8zm1.2.5c-.2 0-.3-.4-.4-.8 0 0 .6-.2.7-.6.1.8-.1 1.4-.3 1.4zm.7-3.7c.2 0 .3.6.3 1.3-.1.3-.4.4-.6.5v-.3c0-.8.1-1.5.3-1.5zm.1 3.3c-.1 0-.3-.5-.3-1.1.1-.1.4-.2.6-.5v.2c0 .8-.2 1.4-.3 1.4zM34 20.9c0 .7-.1 1.3-.2 1.9-.2.7-.4 1.5-.9 2.1-.2.2-.5.4-.7.6-.4.3-.9.6-1.4.7-1.1.2-2.3-.5-3.1-1.3-.5-.5-1.1-1-1.5-1.6-.5-.7-.9-1.5-.7-2.3.2-1 1.1-1.7 2-2 1-.3 2.1-.3 3.2-.3.7 0 1.4 0 2 .2.7.2 1.2.8 1.4 1.4-.1.2-.1.4-.1.6z"/></g></svg>