<svg xmlns="http://www.w3.org/2000/svg" data-name="Layer 1" viewBox="0 0 64 64"><path d="M46.1172 15.0469l3.65-3.6494a.9995.9995 0 0 0-.2236-1.5821 2.5212 2.5212 0 0 1-.5762-.4424 3.0021 3.0021 0 1 1 4.2456 0 1 1 0 0 0 1.4141 1.4141 3.0023 3.0023 0 1 1 0 4.2461 2.5414 2.5414 0 0 1-.4415-.5762 1 1 0 0 0-1.5825-.2236l-4.33 4.3291a1 1 0 1 0 1.4141 1.4141l3.5278-3.5274a5.0023 5.0023 0 1 0 2.82-8.4853 5 5 0 1 0-8.4844 2.8213l-2.8477 2.8476a1 1 0 0 0 1.4141 1.4141zM20.8628 45.9727l-6.63 6.63a.9995.9995 0 0 0 .2236 1.5821 2.5212 2.5212 0 0 1 .5762.4424 3.0021 3.0021 0 1 1-4.2456 0A1 1 0 0 0 9.373 53.2129a3.0023 3.0023 0 1 1 0-4.2461 2.5414 2.5414 0 0 1 .4415.5762 1 1 0 0 0 1.5825.2236l5.84-5.84a1 1 0 0 0-1.414-1.4141l-5.0381 5.0381a5.0021 5.0021 0 1 0-2.82 8.4853 5 5 0 1 0 8.4844-2.8213l5.8277-5.8281a1 1 0 1 0-1.4141-1.414zM10.7852 16.4492l3.5278 3.5274a1 1 0 1 0 1.4141-1.4141l-4.33-4.3291a1 1 0 0 0-1.5825.2236 2.5414 2.5414 0 0 1-.4415.5762 3.0024 3.0024 0 1 1 0-4.2461A1 1 0 1 0 10.7871 9.373a3.0023 3.0023 0 1 1 4.2461 0 2.5343 2.5343 0 0 1-.5767.4424.9995.9995 0 0 0-.2236 1.5821l3.65 3.6494a1 1 0 0 0 1.4141-1.4141l-2.8477-2.8476A5.0024 5.0024 0 1 0 7.9648 7.9639a5 5 0 1 0 2.82 8.4853zM53.2153 47.5508l-5.0381-5.0381a1 1 0 0 0-1.414 1.4141l5.84 5.84a1 1 0 0 0 1.5825-.2236 2.5414 2.5414 0 0 1 .4415-.5762 3.0024 3.0024 0 1 1 0 4.2461 1 1 0 1 0-1.4141 1.4141 3.0023 3.0023 0 1 1-4.2461 0 2.5343 2.5343 0 0 1 .5767-.4424.9995.9995 0 0 0 .2236-1.5821l-6.63-6.63a1 1 0 1 0-1.4141 1.414l5.8277 5.8281a5.0024 5.0024 0 1 0 8.4844 2.8213 5 5 0 1 0-2.82-8.4853z"/><path d="M46.4736,39.5693V37.5547a3.0946,3.0946,0,0,1,.3824-1.5108,17,17,0,1,0-29.6944.03,3.0288,3.0288,0,0,1,.3648,1.4834v2.0117a5.2168,5.2168,0,0,0,5.21,5.211,1.5279,1.5279,0,0,1,1.5264,1.5263v.8418A3.53,3.53,0,0,0,27.79,50.6748H36.21a3.53,3.53,0,0,0,3.5264-3.5264v-.8418A1.5279,1.5279,0,0,1,41.2632,44.78,5.2168,5.2168,0,0,0,46.4736,39.5693Zm-2,0a3.2145,3.2145,0,0,1-3.21,3.211,3.53,3.53,0,0,0-3.5264,3.5263v.8418A1.5279,1.5279,0,0,1,36.21,48.6748H27.79a1.5279,1.5279,0,0,1-1.5264-1.5264v-.8418A3.53,3.53,0,0,0,22.7368,42.78a3.2145,3.2145,0,0,1-3.21-3.211V37.5576a5.0386,5.0386,0,0,0-.6211-2.4638A15.0018,15.0018,0,0,1,31.979,12.7793a15.8286,15.8286,0,0,1,1.7124.0937A14.9977,14.9977,0,0,1,45.11,35.0674a5.1016,5.1016,0,0,0-.6368,2.4873Z"/><path d="M32 35.2012c-2.0884 0-3.1655 3.23-3.1655 4.6084 0 1.1152.5493 2.4443 3.1655 2.4443s3.1655-1.3291 3.1655-2.4443C35.1655 38.4316 34.0884 35.2012 32 35.2012zm0 5.0527c-1.1655 0-1.1655-.2256-1.1655-.4443a3.989 3.989 0 0 1 1.1469-2.61c.4185.1113 1.1841 1.6641 1.1841 2.61C33.1655 40.0283 33.1655 40.2539 32 40.2539zM30.375 33.0732a4.5159 4.5159 0 0 0 .0449-.6709 5.3008 5.3008 0 0 0-10.5224-.915c-.001.0049-.0162.1006-.0171.1065a4.1534 4.1534 0 0 0 1.8139 4.0722 4.42 4.42 0 0 0 2.4829.7705 4.3564 4.3564 0 0 0 2.1963-.5967l3.5157-2.0488A1 1 0 0 0 30.375 33.0732zm-5.0083 1.0381a2.383 2.383 0 0 1-2.55-.1015 2.1677 2.1677 0 0 1-.9468-2.1914 3.3112 3.3112 0 0 1 2.5323-2.6407 3.5535 3.5535 0 0 1 .7246-.0761 3.2528 3.2528 0 0 1 2.0732.7392 3.2919 3.2919 0 0 1 1.22 2.4922zM44.1147 31.4844a5.3011 5.3011 0 0 0-10.5219.9179 4.4754 4.4754 0 0 0 .0459.6729 1.0018 1.0018 0 0 0 .4853.7158L37.6392 35.84a4.3568 4.3568 0 0 0 2.1967.5967 4.4192 4.4192 0 0 0 2.4825-.7705 4.1546 4.1546 0 0 0 1.8144-4.0722zM41.1968 34.01a2.382 2.382 0 0 1-2.5508.1015L35.5933 32.332A3.3071 3.3071 0 0 1 39.61 29.1768a3.3358 3.3358 0 0 1 2.5439 2.7119A2.1412 2.1412 0 0 1 41.1968 34.01z"/></svg>